<?xml version="1.0" ?><!DOCTYPE svg  PUBLIC '-//W3C//DTD SVG 1.1//EN'  'http://www.w3.org/Graphics/SVG/1.1/DTD/svg11.dtd'><svg height="512px" style="enable-background:new 0 0 512 512;" version="1.1" viewBox="0 0 512 512" width="512px" xml:space="preserve" xmlns="http://www.w3.org/2000/svg" xmlns:xlink="http://www.w3.org/1999/xlink"><g id="facebook__x2C__social__x2C__media_x2C__social__x2C__media_x2C_"><g><path d="M425.614,86.349C382.172,42.901,322.253,16.07,255.96,16.07    c-66.292,0-126.209,26.831-169.652,70.278c-43.443,43.445-70.279,103.359-70.279,169.652c0,66.29,26.836,126.209,70.279,169.652    c43.443,43.447,103.359,70.276,169.652,70.276c66.293,0,126.212-26.829,169.654-70.276    c43.443-43.443,70.282-103.362,70.282-169.652C495.896,189.708,469.058,129.794,425.614,86.349z M412.465,412.499    c-40.121,39.993-95.394,64.702-156.505,64.702c-61.109,0-116.379-24.709-156.367-64.702    C59.602,372.382,34.76,317.114,34.76,256.001c0-61.111,24.842-116.379,64.833-156.367c39.988-39.988,95.258-64.835,156.367-64.835    c61.111,0,116.384,24.847,156.505,64.835c39.988,39.988,64.698,95.256,64.698,156.367    C477.163,317.114,452.453,372.382,412.465,412.499z" style="fill-rule:evenodd;clip-rule:evenodd;fill:#262626;"/><path d="M276,187.316c0-9.433,4.537-13.316,9.061-13.316    c4.382,0,28.939,0,28.939,0v-43h-39.307C232.58,131,222,164.729,222,184.925V204h-24v32.603V252h24c0,58,0,126,0,126h54    c0,0,0-68,0-126h32.705l1.595-18.752L313.225,204H276V187.316z" style="fill-rule:evenodd;clip-rule:evenodd;fill:#262626;"/></g></g><g id="Layer_1"/></svg>